<svg width="74" height="71" viewBox="0 0 74 71" fill="none" xmlns="http://www.w3.org/2000/svg">
<path d="M63 42C63 56.3594 51.3594 68 37 68C22.6406 68 11 56.3594 11 42" stroke="#658361" stroke-width="6" stroke-linecap="round"/>
<path d="M25.9601 56.2575L23.4926 53.79L40.3801 36.885L40.0301 36.5C38.6651 35.1525 38.6651 32.9475 40.0301 31.5825L46.9218 24.6431C47.3104 24.2518 47.9425 24.249 48.3346 24.6369L48.54 24.8401C48.9333 25.2291 48.9359 25.8636 48.546 26.2559L43.5826 31.25L45.2626 32.895L50.2254 27.9168C50.6158 27.5252 51.2498 27.5247 51.6407 27.9157L51.8344 28.1093C52.2253 28.5003 52.2248 29.1343 51.8333 29.5246L46.8551 34.4875L48.5001 36.1675L53.4903 31.1926C53.884 30.8001 54.5222 30.804 54.911 31.2013L55.1207 31.4155C55.505 31.8082 55.5005 32.4374 55.1107 32.8245L48.1676 39.72C46.8026 41.085 44.5976 41.085 43.2501 39.72L42.8651 39.37L25.9601 56.2575Z" fill="#658361"/>
<path d="M20.3973 23.7727C19.9604 23.3355 19.2482 23.4347 19.2261 24.0524C19.0242 29.6934 33.8473 46.1461 37.2483 49.8439C37.6305 50.2594 38.2679 50.2572 38.6671 49.858L39.8976 48.6275L48.4288 56.8437L50.8001 54.1925L20.3973 23.7727Z" fill="#658361"/>
<path d="M10.9004 25.469L3.52692 16.3607L9.32769 12.0378L10.4681 13.4466L6.32113 16.537L8.2628 18.9355L12.1592 16.0318L13.2947 17.4345L9.39831 20.3382L12.5541 24.2366L10.9004 25.469Z" fill="#658361"/>
<path d="M23.4406 18.5749C22.6957 18.8581 21.9612 18.9481 21.2369 18.8447C20.5175 18.7396 19.8711 18.4702 19.2977 18.0365C18.7271 17.5963 18.2937 17.0175 17.9974 16.3002C17.7011 15.583 17.6045 14.8789 17.7078 14.1879C17.8139 13.4903 18.0915 12.8668 18.5404 12.3173C18.9943 11.7659 19.5936 11.3486 20.3384 11.0654C21.0784 10.784 21.8081 10.6959 22.5275 10.8011C23.2469 10.9062 23.8894 11.1799 24.4551 11.622C25.0237 12.0575 25.4561 12.6339 25.7524 13.3511C26.0487 14.0684 26.1462 14.7749 26.045 15.4706C25.9466 16.1597 25.6729 16.779 25.224 17.3285C24.775 17.878 24.1805 18.2935 23.4406 18.5749ZM22.7668 16.9846C23.1562 16.8365 23.4655 16.6103 23.6947 16.3059C23.9238 16.0016 24.0584 15.6524 24.0984 15.2584C24.1433 14.8626 24.0803 14.4577 23.9093 14.0437C23.7402 13.6345 23.499 13.3029 23.1857 13.0489C22.8752 12.7882 22.5278 12.6223 22.1436 12.5512C21.7593 12.4801 21.3725 12.5186 20.983 12.6667C20.5984 12.813 20.2891 13.0392 20.0551 13.3454C19.826 13.6498 19.689 13.9999 19.6441 14.3957C19.602 14.7849 19.6655 15.1841 19.8346 15.5932C20.0056 16.0072 20.2463 16.3445 20.5568 16.6052C20.8722 16.8641 21.222 17.029 21.6062 17.1001C21.9953 17.1694 22.3822 17.1309 22.7668 16.9846Z" fill="#658361"/>
<path d="M33.966 16.3982C33.1724 16.4703 32.4444 16.3585 31.782 16.0631C31.1248 15.7671 30.5848 15.3324 30.1619 14.7589C29.7437 14.1798 29.4965 13.5041 29.4203 12.7318C29.3441 11.9595 29.4551 11.2539 29.7532 10.615C30.056 9.9704 30.5012 9.44363 31.0889 9.03466C31.6818 8.62523 32.375 8.38448 33.1686 8.31244C33.957 8.24086 34.6798 8.35305 35.337 8.64899C35.9942 8.94494 36.5294 9.38271 36.9424 9.96231C37.3601 10.5363 37.607 11.2094 37.6832 11.9817C37.7594 12.754 37.6486 13.4622 37.3511 14.1063C37.0581 14.7447 36.6179 15.2684 36.0302 15.6774C35.4425 16.0864 34.7544 16.3266 33.966 16.3982ZM33.781 14.6814C34.196 14.6437 34.5569 14.509 34.8637 14.2772C35.1706 14.0454 35.4 13.7448 35.5519 13.3753C35.7091 13.0055 35.7657 12.5976 35.7217 12.1519C35.6783 11.7113 35.5435 11.3261 35.3173 10.9963C35.0958 10.6608 34.8117 10.4068 34.465 10.2343C34.1183 10.0618 33.7375 9.9944 33.3225 10.0321C32.9127 10.0693 32.5518 10.204 32.2398 10.4363C31.9329 10.6681 31.7009 10.969 31.5438 11.3388C31.3913 11.7031 31.3368 12.1055 31.3802 12.546C31.4242 12.9918 31.5569 13.3824 31.7784 13.7179C32.0051 14.053 32.2918 14.3067 32.6385 14.4792C32.9904 14.6512 33.3712 14.7186 33.781 14.6814Z" fill="#658361"/>
<path d="M48.9633 17.6387L47.2957 17.3332L47.4093 16.2422C47.0001 16.5643 46.5354 16.7915 46.0152 16.9238C45.4961 17.0511 44.9573 17.0636 44.3989 16.9613C43.6765 16.8289 43.0656 16.537 42.5661 16.0854C42.0665 15.6339 41.7123 15.0793 41.5034 14.4216C41.3006 13.7597 41.2749 13.0482 41.4264 12.287C41.5779 11.5259 41.8745 10.8761 42.3161 10.3376C42.764 9.79489 43.3068 9.40196 43.9446 9.15879C44.5824 8.91562 45.2625 8.86021 45.9848 8.99255C46.5125 9.08922 46.9829 9.27336 47.3961 9.54496C47.8094 9.81656 48.1484 10.154 48.4133 10.5572L49.3603 5.79899L51.2507 6.14533L48.9633 17.6387ZM45.1509 15.3439C45.5607 15.419 45.953 15.3956 46.3277 15.2737C46.7034 15.1466 47.0237 14.9379 47.2886 14.6476C47.5535 14.3573 47.7276 14.0027 47.8109 13.5838L47.8643 13.3156C47.9467 12.9019 47.92 12.5158 47.7842 12.1574C47.6495 11.7938 47.4313 11.4892 47.1298 11.2433C46.8293 10.9924 46.4741 10.8294 46.0643 10.7543C45.6339 10.6754 45.2294 10.7072 44.8506 10.8496C44.4728 10.9868 44.152 11.2113 43.8882 11.523C43.6254 11.8296 43.4508 12.2 43.3644 12.6342C43.277 13.0735 43.2961 13.4846 43.4216 13.8676C43.5472 14.2507 43.7592 14.5728 44.0576 14.8339C44.3561 15.0951 44.7205 15.2651 45.1509 15.3439Z" fill="#658361"/>
<path d="M57.0377 10.3476C56.7892 10.2398 56.6189 10.0639 56.5268 9.81963C56.4417 9.57277 56.4569 9.32684 56.5723 9.08183C56.6855 8.84154 56.8657 8.67285 57.1128 8.57576C57.367 8.47603 57.6183 8.48005 57.8667 8.58781C58.12 8.69764 58.2916 8.87702 58.3815 9.12596C58.4736 9.37018 58.463 9.61244 58.3498 9.85273C58.2344 10.0977 58.0496 10.2701 57.7954 10.3698C57.5435 10.4648 57.2909 10.4574 57.0377 10.3476ZM53.7074 19.6703L51.9442 18.9056L55.2737 11.8381L57.0369 12.6028L53.7074 19.6703Z" fill="#658361"/>
<path d="M64.5312 25.4065C63.3046 25.3751 62.2277 25.0139 61.3006 24.323C60.6282 23.8219 60.1395 23.2305 59.8343 22.5488C59.5291 21.8671 59.4182 21.1646 59.5015 20.4413C59.5923 19.7172 59.8867 19.0474 60.3848 18.4321C60.86 17.8451 61.4243 17.4251 62.0777 17.1722C62.7353 16.9223 63.4165 16.8459 64.1214 16.9428C64.8305 17.0429 65.4941 17.3232 66.1122 17.7838C66.7553 18.2631 67.1995 18.831 67.4447 19.4875C67.6974 20.1431 67.748 20.8332 67.5968 21.5577C67.4487 22.2781 67.0962 22.9825 66.5391 23.6707L66.3818 23.865L61.5582 20.2704C61.4106 20.6016 61.3455 20.9426 61.363 21.2931C61.3847 21.6468 61.49 21.9881 61.679 22.3172C61.8679 22.6462 62.1399 22.943 62.4949 23.2075C63.1631 23.7055 63.9516 23.9556 64.8603 23.9578L64.5312 25.4065ZM62.2034 19.3493L65.6614 21.9262C65.8737 21.5977 65.9923 21.2609 66.0171 20.916C66.0461 20.5741 65.9861 20.2471 65.8372 19.9349C65.6956 19.6217 65.4703 19.35 65.1613 19.1197C64.8481 18.8863 64.5159 18.7425 64.1646 18.6884C63.8133 18.6343 63.467 18.6651 63.1257 18.7807C62.7877 18.8922 62.4803 19.0818 62.2034 19.3493Z" fill="#658361"/>
</svg>
