<svg width="32" height="32" viewBox="0 0 32 32" fill="none" xmlns="http://www.w3.org/2000/svg">
<path d="M25.5661 2.43311H6.43311C4.23311 2.43311 2.43311 4.23311 2.43311 6.43311V25.5681C2.43311 27.7681 4.23311 29.5681 6.43311 29.5681H25.5681C27.7681 29.5681 29.5681 27.7681 29.5681 25.5681V6.43311C29.5661 4.23311 27.7681 2.43311 25.5661 2.43311V2.43311ZM25.3091 16.9161H22.0891V28.5661H17.2711V16.9161H14.8611V12.9001H17.2711V10.4901C17.2711 7.2141 18.6311 5.26511 22.5011 5.26511H25.7181V9.28011H23.7061C22.2021 9.28011 22.1021 9.84311 22.1021 10.8901L22.0891 12.9001H25.7341L25.3081 16.9161H25.3091Z" fill="#F8FAE4"/>
</svg>
