<svg width="32" height="32" viewBox="0 0 32 32" fill="none" xmlns="http://www.w3.org/2000/svg">
<path d="M16.0001 15.3334C15.116 15.3334 14.2682 14.9822 13.6431 14.3571C13.0179 13.732 12.6667 12.8841 12.6667 12.0001C12.6667 11.116 13.0179 10.2682 13.6431 9.64306C14.2682 9.01794 15.116 8.66675 16.0001 8.66675C16.8841 8.66675 17.732 9.01794 18.3571 9.64306C18.9822 10.2682 19.3334 11.116 19.3334 12.0001C19.3334 12.4378 19.2472 12.8713 19.0797 13.2757C18.9122 13.6801 18.6666 14.0476 18.3571 14.3571C18.0476 14.6666 17.6801 14.9122 17.2757 15.0797C16.8713 15.2472 16.4378 15.3334 16.0001 15.3334M16.0001 2.66675C13.5247 2.66675 11.1508 3.65008 9.40042 5.40042C7.65008 7.15076 6.66675 9.52473 6.66675 12.0001C6.66675 19.0001 16.0001 29.3334 16.0001 29.3334C16.0001 29.3334 25.3334 19.0001 25.3334 12.0001C25.3334 9.52473 24.3501 7.15076 22.5997 5.40042C20.8494 3.65008 18.4754 2.66675 16.0001 2.66675V2.66675Z" fill="#F8FAE4"/>
</svg>
