<svg width="28" height="28" viewBox="0 0 28 28" fill="none" xmlns="http://www.w3.org/2000/svg">
<path d="M14 7C15.295 7 16.3333 5.95 16.3333 4.66667C16.3333 4.22333 16.2167 3.815 15.995 3.465L14 0L12.005 3.465C11.7833 3.815 11.6667 4.22333 11.6667 4.66667C11.6667 5.28551 11.9125 5.879 12.3501 6.31658C12.7877 6.75417 13.3812 7 14 7ZM19.3667 18.6667L18.1183 17.4067L16.8583 18.6667C15.3417 20.1717 12.6817 20.1833 11.1533 18.6667L9.91667 17.4067L8.63333 18.6667C7.875 19.4133 6.86 19.8333 5.78667 19.8333C4.935 19.8333 4.15333 19.565 3.5 19.1217V24.5C3.5 24.8094 3.62292 25.1062 3.84171 25.325C4.0605 25.5438 4.35725 25.6667 4.66667 25.6667H23.3333C23.6428 25.6667 23.9395 25.5438 24.1583 25.325C24.3771 25.1062 24.5 24.8094 24.5 24.5V19.1217C23.8467 19.565 23.065 19.8333 22.2133 19.8333C21.14 19.8333 20.125 19.4133 19.3667 18.6667ZM21 10.5H15.1667V8.16667H12.8333V10.5H7C6.07174 10.5 5.1815 10.8687 4.52513 11.5251C3.86875 12.1815 3.5 13.0717 3.5 14V15.7967C3.5 17.0567 4.52667 18.0833 5.78667 18.0833C6.41667 18.0833 7 17.85 7.39667 17.4183L9.91667 14.9333L12.3783 17.4183C13.2417 18.2817 14.7467 18.2817 15.61 17.4183L18.0833 14.9333L20.5917 17.4183C21 17.85 21.5833 18.0833 22.2017 18.0833C23.4617 18.0833 24.5 17.0567 24.5 15.7967V14C24.5 13.0717 24.1313 12.1815 23.4749 11.5251C22.8185 10.8687 21.9283 10.5 21 10.5Z" fill="#666A45"/>
</svg>
