<svg width="28" height="28" viewBox="0 0 28 28" fill="none" xmlns="http://www.w3.org/2000/svg">
<path d="M17.5 12.8333C16.8583 12.8333 16.3092 12.6047 15.8527 12.1473C15.3953 11.6908 15.1667 11.1417 15.1667 10.5V5.83333C15.1667 5.19167 15.3953 4.64217 15.8527 4.18483C16.3092 3.72828 16.8583 3.5 17.5 3.5H22.1667C22.8083 3.5 23.3578 3.72828 23.8152 4.18483C24.2717 4.64217 24.5 5.19167 24.5 5.83333V10.5C24.5 11.1417 24.2717 11.6908 23.8152 12.1473C23.3578 12.6047 22.8083 12.8333 22.1667 12.8333H17.5ZM12.8333 10.5C12.8333 11.1417 12.6051 11.6908 12.1485 12.1473C11.6912 12.6047 11.1417 12.8333 10.5 12.8333H5.83333C5.19167 12.8333 4.64217 12.6047 4.18483 12.1473C3.72828 11.6908 3.5 11.1417 3.5 10.5V5.83333C3.5 5.19167 3.72828 4.64217 4.18483 4.18483C4.64217 3.72828 5.19167 3.5 5.83333 3.5H10.5C11.1417 3.5 11.6912 3.72828 12.1485 4.18483C12.6051 4.64217 12.8333 5.19167 12.8333 5.83333V10.5ZM15.1667 17.5C15.1667 16.8583 15.3953 16.3088 15.8527 15.8515C16.3092 15.3949 16.8583 15.1667 17.5 15.1667H22.1667C22.8083 15.1667 23.3578 15.3949 23.8152 15.8515C24.2717 16.3088 24.5 16.8583 24.5 17.5V22.1667C24.5 22.8083 24.2717 23.3578 23.8152 23.8152C23.3578 24.2717 22.8083 24.5 22.1667 24.5H17.5C16.8583 24.5 16.3092 24.2717 15.8527 23.8152C15.3953 23.3578 15.1667 22.8083 15.1667 22.1667V17.5ZM10.5 15.1667C11.1417 15.1667 11.6912 15.3949 12.1485 15.8515C12.6051 16.3088 12.8333 16.8583 12.8333 17.5V22.1667C12.8333 22.8083 12.6051 23.3578 12.1485 23.8152C11.6912 24.2717 11.1417 24.5 10.5 24.5H5.83333C5.19167 24.5 4.64217 24.2717 4.18483 23.8152C3.72828 23.3578 3.5 22.8083 3.5 22.1667V17.5C3.5 16.8583 3.72828 16.3088 4.18483 15.8515C4.64217 15.3949 5.19167 15.1667 5.83333 15.1667H10.5Z" fill="#666A45"/>
</svg>
