<svg width="32" height="32" viewBox="0 0 32 32" fill="none" xmlns="http://www.w3.org/2000/svg">
<path d="M22.5067 5.33332L25.3733 8.13332L18 14L16.6667 12.6667L22.4933 5.33332H22.5067M22.5067 2.66665C22.1127 2.66405 21.723 2.74879 21.3656 2.91478C21.0083 3.08078 20.6922 3.32389 20.44 3.62665L13.0667 12.8667L17.7867 17.5867L27.04 10.2267C28.24 9.21332 28.3333 7.38665 27.2133 6.26665L24.4 3.45332C23.8667 2.91999 23.1867 2.66665 22.5067 2.66665ZM12.1333 13.8133L11.1867 14.76C10.9367 15.0143 10.7966 15.3567 10.7966 15.7133C10.7966 16.07 10.9367 16.4123 11.1867 16.6667L14 19.4667C14.28 19.7333 14.6133 19.8533 14.96 19.8533C15.3067 19.8533 15.64 19.7333 15.9067 19.4667L16.84 18.5333L12.1333 13.8133ZM8 20C7.26667 20 6.66667 20.6 6.66667 21.3333C6.66667 22.0667 7.26667 22.6667 8 22.6667C8.73333 22.6667 9.33333 22.0667 9.33333 21.3333C9.33333 20.6 8.73333 20 8 20ZM12 21.3333C11.2667 21.3333 10.6667 21.9333 10.6667 22.6667C10.6667 23.4 11.2667 24 12 24C12.7333 24 13.3333 23.4 13.3333 22.6667C13.3333 21.9333 12.7333 21.3333 12 21.3333ZM5.33333 24C4.6 24 4 24.6 4 25.3333C4 26.0667 4.6 26.6667 5.33333 26.6667C6.06667 26.6667 6.66667 26.0667 6.66667 25.3333C6.66667 24.6 6.06667 24 5.33333 24ZM9.33333 25.3333C8.6 25.3333 8 25.9333 8 26.6667C8 27.4 8.6 28 9.33333 28C10.0667 28 10.6667 27.4 10.6667 26.6667C10.6667 25.9333 10.0667 25.3333 9.33333 25.3333Z" fill="#658361"/>
</svg>
