<svg width="32" height="32" viewBox="0 0 32 32" fill="none" xmlns="http://www.w3.org/2000/svg">
<path d="M16 26.6667C13.5246 26.6667 11.1507 25.6833 9.40034 23.933C7.65 22.1827 6.66667 19.8087 6.66667 17.3333C6.66667 14.858 7.65 12.484 9.40034 10.7337C11.1507 8.98334 13.5246 8.00001 16 8.00001C18.4754 8.00001 20.8493 8.98334 22.5997 10.7337C24.35 12.484 25.3333 14.858 25.3333 17.3333C25.3333 19.8087 24.35 22.1827 22.5997 23.933C20.8493 25.6833 18.4754 26.6667 16 26.6667ZM25.3733 9.85334L27.2667 7.96001C26.6667 7.28001 26.0667 6.66668 25.3867 6.08001L23.4933 8.00001C21.4267 6.32001 18.8267 5.33334 16 5.33334C12.8174 5.33334 9.76516 6.59763 7.51472 8.84806C5.26428 11.0985 4 14.1507 4 17.3333C4 20.5159 5.26428 23.5682 7.51472 25.8186C9.76516 28.0691 12.8174 29.3333 16 29.3333C22.6667 29.3333 28 23.96 28 17.3333C28 14.5067 27.0133 11.9067 25.3733 9.85334ZM14.6667 18.6667H17.3333V10.6667H14.6667M20 1.33334H12V4.00001H20V1.33334Z" fill="#666A45"/>
</svg>
