<svg width="25" height="24" viewBox="0 0 25 24" fill="none" xmlns="http://www.w3.org/2000/svg">
<path d="M8.5 16C9.6 16 10.5417 15.6083 11.325 14.825C12.1083 14.0417 12.5 13.1 12.5 12C12.5 10.9 12.1083 9.95833 11.325 9.175C10.5417 8.39167 9.6 8 8.5 8C7.4 8 6.45833 8.39167 5.675 9.175C4.89167 9.95833 4.5 10.9 4.5 12C4.5 13.1 4.89167 14.0417 5.675 14.825C6.45833 15.6083 7.4 16 8.5 16ZM8.5 18C6.83333 18 5.41667 17.4167 4.25 16.25C3.08333 15.0833 2.5 13.6667 2.5 12C2.5 10.3333 3.08333 8.91667 4.25 7.75C5.41667 6.58333 6.83333 6 8.5 6C10 6 11.3043 6.475 12.413 7.425C13.521 8.375 14.1917 9.56667 14.425 11H21.5C21.7833 11 22.0207 11.0957 22.212 11.287C22.404 11.479 22.5 11.7167 22.5 12C22.5 12.2833 22.404 12.5207 22.212 12.712C22.0207 12.904 21.7833 13 21.5 13H14.425C14.1917 14.4333 13.521 15.625 12.413 16.575C11.3043 17.525 10 18 8.5 18Z" fill="#F9DE79"/>
</svg>
