<svg width="33" height="32" viewBox="0 0 33 32" fill="none" xmlns="http://www.w3.org/2000/svg">
<path d="M28.4999 6.66667C27.0199 6.2 25.3933 6 23.8333 6C21.2333 6 18.4333 6.53333 16.4999 8C14.5666 6.53333 11.7666 6 9.16658 6C6.56658 6 3.76659 6.53333 1.83325 8V27.5333C1.83325 27.8667 2.16659 28.2 2.49992 28.2C2.63325 28.2 2.69992 28.1333 2.83325 28.1333C4.63325 27.2667 7.23325 26.6667 9.16658 26.6667C11.7666 26.6667 14.5666 27.2 16.4999 28.6667C18.2999 27.5333 21.5666 26.6667 23.8333 26.6667C26.0333 26.6667 28.2999 27.0667 30.1666 28.0667C30.2999 28.1333 30.3666 28.1333 30.4999 28.1333C30.8333 28.1333 31.1666 27.8 31.1666 27.4667V8C30.3666 7.4 29.4999 7 28.4999 6.66667ZM28.4999 24.6667C27.0333 24.2 25.4333 24 23.8333 24C21.5666 24 18.2999 24.8667 16.4999 26V10.6667C18.2999 9.53333 21.5666 8.66667 23.8333 8.66667C25.4333 8.66667 27.0333 8.86667 28.4999 9.33333V24.6667Z" fill="#658361"/>
<path d="M23.8333 14C25.0066 14 26.1399 14.12 27.1666 14.3467V12.32C26.1133 12.12 24.9799 12 23.8333 12C21.5666 12 19.5133 12.3867 17.8333 13.1067V15.32C19.3399 14.4667 21.4333 14 23.8333 14ZM17.8333 16.6533V18.8667C19.3399 18.0133 21.4333 17.5467 23.8333 17.5467C25.0066 17.5467 26.1399 17.6667 27.1666 17.8933V15.8667C26.1133 15.6667 24.9799 15.5467 23.8333 15.5467C21.5666 15.5467 19.5133 15.9467 17.8333 16.6533ZM23.8333 19.1067C21.5666 19.1067 19.5133 19.4933 17.8333 20.2133V22.4267C19.3399 21.5733 21.4333 21.1067 23.8333 21.1067C25.0066 21.1067 26.1399 21.2267 27.1666 21.4533V19.4267C26.1133 19.2133 24.9799 19.1067 23.8333 19.1067Z" fill="#658361"/>
</svg>
