<svg width="28" height="28" viewBox="0 0 28 28" fill="none" xmlns="http://www.w3.org/2000/svg">
<path d="M2.33325 24.5H23.3333V22.1667H2.33325M23.3333 9.33333H20.9999V5.83333H23.3333M23.3333 3.5H4.66659V15.1667C4.66659 16.4043 5.15825 17.5913 6.03342 18.4665C6.90859 19.3417 8.09557 19.8333 9.33325 19.8333H16.3333C17.5709 19.8333 18.7579 19.3417 19.6331 18.4665C20.5083 17.5913 20.9999 16.4043 20.9999 15.1667V11.6667H23.3333C23.9521 11.6667 24.5456 11.4208 24.9832 10.9832C25.4208 10.5457 25.6666 9.95217 25.6666 9.33333V5.83333C25.6666 4.53833 24.6166 3.5 23.3333 3.5Z" fill="#666A45"/>
</svg>
