<svg width="28" height="28" viewBox="0 0 28 28" fill="none" xmlns="http://www.w3.org/2000/svg">
<path d="M25.6666 3.5L11.6666 5.145V7H25.6666V8.16667H11.6666V14H25.6666C25.6666 16.1117 25.0016 18.0367 23.7066 19.775C22.4116 21.5133 20.7316 22.785 18.6666 23.625V25.6667H9.33325V23.625C7.27992 22.785 5.58825 21.5017 4.29325 19.775C2.99825 18.0483 2.33325 16.1117 2.33325 14H5.83325V4.66667L25.6666 2.33334V3.5ZM6.99992 5.69334V7H8.16659V5.57667L6.99992 5.69334ZM6.99992 8.16667V14H8.16659V8.16667H6.99992ZM10.4999 14V8.16667H9.33325V14H10.4999ZM10.4999 7V5.30834L9.33325 5.41334V7H10.4999Z" fill="#666A45"/>
</svg>
